<svg width="127" height="20" viewBox="0 0 127 20" fill="none" xmlns="http://www.w3.org/2000/svg">
<g clip-path="url(#clip0_15_2)">
<path fill-rule="evenodd" clip-rule="evenodd" d="M0 0H10.065C16.297 0 20.704 4.13 20.704 10C20.704 15.87 16.297 20 10.065 20H0V0ZM7.823 14.597H9.648C11.604 14.597 12.647 13.299 12.647 10C12.647 6.701 11.604 5.403 9.647 5.403H7.824L7.823 14.597ZM40.153 20H23.62V0H40.152V5.403H31.417V7.714H39.63V12.13H31.417V14.597H40.152L40.153 20ZM60.463 20H43.93V0H60.462V5.403H51.726V7.714H59.94V12.13H51.726V14.597H60.462L60.463 20ZM126.622 20C125.496 16.942 123.92 13.679 121.801 10.021C124.28 9.297 125.762 7.741 125.762 5.351C125.762 1.714 122.398 0 117.079 0H106.127V20H113.95V11.727C115.688 14.643 116.968 17.394 117.809 20H126.622ZM113.95 8.935V5.403H116.662C117.809 5.403 118.461 6.026 118.461 7.169C118.461 8.312 117.809 8.935 116.662 8.935H113.95ZM102.328 20H85.797V0H102.328V5.403H93.593V7.714H101.807V12.13H93.593V14.597H102.328V20ZM64.397 5.403H72.468C69.119 8.132 66.363 11.223 64.24 14.597V20H81.998V14.597H73.122C75.156 11.65 77.998 8.715 81.998 5.403V0H64.397V5.403Z" fill="black"/>
</g>
<defs>
<clipPath id="clip0_15_2">
<rect width="127" height="20" fill="white"/>
</clipPath>
</defs>
</svg>
