<svg width="279" height="279" viewBox="0 0 279 279" fill="none" xmlns="http://www.w3.org/2000/svg">
<path fill-rule="evenodd" clip-rule="evenodd" d="M232.97 42.874C235.539 27.984 239.309 18.62 243.485 18.603H243.493C251.28 18.629 257.592 51.101 257.592 91.193C257.592 131.284 251.271 163.782 243.476 163.782C240.28 163.782 237.331 158.264 234.957 149.017C231.205 182.867 223.419 206.136 214.405 206.136C207.431 206.136 201.172 192.158 196.97 170.114C194.101 212.038 186.88 241.783 178.44 241.783C173.143 241.783 168.314 229.996 164.739 210.804C160.44 250.421 150.508 278.18 138.926 278.18C127.344 278.18 117.394 250.43 113.113 210.804C109.564 229.996 104.735 241.783 99.412 241.783C90.972 241.783 83.769 212.038 80.882 170.114C76.68 192.158 70.438 206.136 63.446 206.136C54.442 206.136 46.646 182.875 42.895 149.017C40.538 158.291 37.572 163.782 34.376 163.782C26.581 163.782 20.26 131.284 20.26 91.192C20.26 51.102 26.58 18.602 34.376 18.602C38.56 18.602 42.304 27.992 44.899 42.874C49.057 17.198 55.81 0.51001 63.446 0.51001C72.513 0.51001 80.37 24.11 84.086 58.38C87.724 33.438 93.241 17.537 99.421 17.537C108.081 17.537 115.443 48.811 118.171 92.434C123.3 70.068 130.725 56.037 138.944 56.037C147.162 56.037 154.587 70.077 159.707 92.435C162.444 48.811 169.797 17.537 178.458 17.537C184.628 17.537 190.137 33.437 193.792 58.38C197.5 24.11 205.357 0.51001 214.423 0.51001C222.033 0.51001 228.812 17.208 232.97 42.874ZM0.0899658 84.053C0.0899658 66.131 3.67297 51.599 8.09597 51.599C12.519 51.599 16.103 66.131 16.103 84.053C16.103 101.974 12.519 116.507 8.09597 116.507C3.67297 116.507 0.0899658 101.974 0.0899658 84.053ZM261.743 84.053C261.743 66.131 265.327 51.599 269.75 51.599C274.172 51.599 277.757 66.131 277.757 84.053C277.757 101.974 274.172 116.507 269.75 116.507C265.327 116.507 261.743 101.974 261.743 84.053Z" fill="#A238FF"/>
</svg>
